# xmcd
#
# Track frame offsets: 
#        150
#        16877
#        37650
#        62237
#
# Disc length: 1109 seconds
#
# Revision: 5
# Processed by: cddbd v1.5.2PL0 Copyright (c) Steve Scherf et al.
# Submitted via: ExactAudioCopy v0.99pb4
#
DISCID=25045304
DTITLE=DJ Jazzy Jeff and The Fresh Prince - I'm Looking For The One
DYEAR=1993
DGENRE=Rap
TTITLE0=I'm Looking For The One (Video Version)
TTITLE1=I'm Looking For The One (LP Version)
TTITLE2=I'm Looking For The One (12" Mix)
TTITLE3=Get Hyped
EXTD=
EXTT0=
EXTT1=
EXTT2=
EXTT3=
PLAYORDER=
